<?xml version="1.0" encoding="utf-8"?>
<!-- Generator: Adobe Illustrator 21.0.0, SVG Export Plug-In . SVG Version: 6.00 Build 0)  -->
<svg version="1.1" id="Layer_1" xmlns="http://www.w3.org/2000/svg" xmlns:xlink="http://www.w3.org/1999/xlink" x="0px" y="0px"
	 viewBox="0 0 512 512" style="enable-background:new 0 0 512 512;" xml:space="preserve">
<g>
	<path d="M503.7,329.2c-8-18.9-21.3-34.8-38-46.2c-8.4-5.7-17.6-10.2-27.5-13.3c-9.9-3.1-20.4-4.8-31.2-4.8v18.5l-0.1,18.3
		c9.5,0,18.5,2,26.7,5.4c12.3,5.2,22.8,13.9,30.2,24.9c3.7,5.5,6.6,11.5,8.6,17.9c2,6.4,3.1,13.2,3.1,20.3c0,9.5-1.9,18.5-5.4,26.7
		c-5.2,12.3-13.9,22.8-24.9,30.2c-5.5,3.7-11.5,6.6-17.9,8.6c-6.4,2-13.3,3.1-20.4,3.1c-9.5,0-18.5-1.9-26.7-5.4
		c-12.3-5.2-22.8-13.9-30.2-24.9c-3.7-5.5-6.6-11.5-8.6-17.9c-2-6.4-3.1-13.3-3.1-20.4c0-9.5,1.9-18.5,5.4-26.7
		c5.2-12.3,13.9-22.8,24.9-30.2c5.5-3.7,11.5-6.6,17.9-8.6c6.4-2,13.3-3.1,20.4-3.1h-0.1l0.1-18.2v-18.3c-14.5,0-28.3,2.9-40.9,8.3
		c-18.9,8-34.9,21.3-46.2,38.1c-5.7,8.4-10.2,17.6-13.2,27.5c-3.1,9.9-4.7,20.4-4.7,31.3c0,14.5,2.9,28.3,8.3,40.9
		c8,18.9,21.3,34.9,38.1,46.2c8.4,5.7,17.6,10.2,27.5,13.2c9.9,3.1,20.4,4.7,31.3,4.7c14.5,0,28.3-2.9,40.9-8.3
		c18.9-8,34.9-21.3,46.2-38.1c5.7-8.4,10.2-17.6,13.2-27.5c3.1-9.9,4.7-20.4,4.7-31.3C512.1,355.7,509.1,341.8,503.7,329.2z"/>
	<path d="M163.8,283c-8.4-5.7-17.6-10.2-27.5-13.3c-9.9-3.1-20.4-4.8-31.2-4.8v18.5l-0.1,18.3c9.5,0,18.5,2,26.7,5.4
		c12.3,5.2,22.8,13.9,30.2,24.9c3.7,5.5,6.6,11.5,8.6,17.9c2,6.4,3.1,13.2,3.1,20.3c0,9.5-1.9,18.5-5.4,26.7
		c-5.2,12.3-13.9,22.8-24.9,30.2c-5.5,3.7-11.5,6.6-17.9,8.6c-6.4,2-13.3,3.1-20.4,3.1c-9.5,0-18.5-1.9-26.7-5.4
		c-12.3-5.2-22.8-13.9-30.2-24.9c-3.7-5.5-6.6-11.5-8.6-17.9c-2-6.4-3.1-13.3-3.1-20.4c0-9.5,1.9-18.5,5.4-26.7
		c5.2-12.3,13.9-22.8,24.9-30.2c5.5-3.7,11.5-6.6,17.9-8.6s13.3-3.1,20.4-3.1h-0.1l0.2-18.2v-18.3c-14.5,0-28.3,2.9-40.9,8.3
		c-18.9,8-34.9,21.3-46.2,38.1c-5.7,8.4-10.2,17.6-13.2,27.5C1.7,348.9,0,359.4,0,370.3c0,14.5,2.9,28.3,8.3,40.9
		c8,18.9,21.3,34.9,38.1,46.2c8.4,5.7,17.6,10.2,27.5,13.2c9.9,3.1,20.4,4.7,31.3,4.7c14.5,0,28.3-2.9,40.9-8.3
		c18.9-8,34.9-21.3,46.2-38.1c5.7-8.4,10.2-17.6,13.2-27.5c3.1-9.9,4.7-20.4,4.7-31.3c0-14.4-3-28.3-8.4-40.9
		C193.8,310.3,180.5,294.4,163.8,283z"/>
	<path d="M266,252.1l-55.2-36.3l59.9-65.9l33.3,60c3.2,5.8,9.3,9.4,16,9.4h64c10.1,0,18.3-8.2,18.3-18.3c0-10.1-8.2-18.3-18.3-18.3
		h-53.2L290.3,110c-2.8-5.1-8.1-8.6-13.9-9.3s-11.7,1.5-15.6,5.9l-91.4,100.6c-3.6,4-5.3,9.3-4.6,14.6s3.6,10,8.1,13l64.9,42.6v88.4
		c0,10.1,8.2,18.3,18.3,18.3c10-0.1,18.2-8.3,18.2-18.4v-98.3C274.3,261.2,271.2,255.5,266,252.1z"/>
	<path d="M329.1,109.7c20.1,0.1,36.5-16.2,36.6-36.3c0-0.1,0-0.2,0-0.4c0.2-19.9-15.7-36.2-35.7-36.5c-0.2,0-0.5,0-0.7,0
		c-20.2-0.1-36.6,16.3-36.7,36.5C292.6,93.2,308.9,109.7,329.1,109.7z"/>
</g>
</svg>
